<?xml version="1.0" encoding="iso-8859-1"?>
<!-- Uploaded to: SVG Repo, www.svgrepo.com, Generator: SVG Repo Mixer Tools -->
<svg fill="#000000" version="1.1" id="Capa_1" xmlns="http://www.w3.org/2000/svg" xmlns:xlink="http://www.w3.org/1999/xlink" 
	 viewBox="0 0 60.1 60.1" xml:space="preserve">
<g>
	<g>
		<path d="M57,31.537c0-1.5,0-5.8,0-5.8c0-0.5-0.3-0.9-0.7-1l-5.3-1.5l8.5-4.3c0.4-0.2,0.6-0.5,0.6-0.9s-0.3-0.7-0.6-0.9l-29-14.5
			c-0.3-0.1-0.6-0.1-0.9,0l-29,14.5c-0.4,0.2-0.6,0.5-0.6,0.9s0.2,0.7,0.6,0.9l9.4,4.7v31.9H6v2h48v-2h-4v-30.5l5,1.4v5.1
			c-1.7,0-3,1.3-3,3v12c0,1.7,1.3,3,3,3h2c1.7,0,3-1.3,3-3v-12C60,32.837,58.7,31.537,57,31.537z M30,4.637l26.8,13.4l-8.7,4.3
			l-17.1-4.9v-1.9h-2v6h2v-2l14.5,4.2l-15.5,7.7l-26.8-13.4L30,4.637z M12,55.537v-4h23v-2H12v-24.9l17.6,8.8
			c0.1,0.1,0.2,0.1,0.4,0.1s0.3,0,0.5-0.1l17.5-8.8v30.9H12z M58,46.537c0,0.6-0.4,1-1,1h-2c-0.6,0-1-0.4-1-1v-12c0-0.6,0.4-1,1-1h2
			c0.6,0,1,0.4,1,1V46.537z"/>
		<rect x="38" y="49.537" width="5" height="2"/>
	</g>
</g>
</svg>